<?xml version="1.0" encoding="utf-8"?>
<!-- Generator: Adobe Illustrator 21.0.0, SVG Export Plug-In . SVG Version: 6.00 Build 0)  -->
<svg version="1.1" id="Layer_1" xmlns="http://www.w3.org/2000/svg" xmlns:xlink="http://www.w3.org/1999/xlink" x="0px" y="0px"
	 viewBox="0 0 1000 615" style="enable-background:new 0 0 1000 615;" xml:space="preserve">
<style type="text/css">
	.st0{fill:none;stroke:#003192;stroke-width:16;stroke-miterlimit:10;}
	.st1{fill:#003192;}
	.st2{fill:none;stroke:#003192;stroke-width:14;stroke-linecap:round;stroke-miterlimit:10;}
	.st3{fill:none;stroke:#000000;stroke-width:16;stroke-miterlimit:10;}
	.st4{fill:none;stroke:#000000;stroke-width:14;stroke-linecap:round;stroke-miterlimit:10;}
	.st5{fill:#000E4A;stroke:#E5FDFF;stroke-width:16;stroke-miterlimit:10;}
	.st6{fill:none;stroke:#E5FDFF;stroke-width:16;stroke-miterlimit:10;}
	.st7{fill:#E5FDFF;}
	.st8{fill:none;stroke:#E5FDFF;stroke-width:14;stroke-linecap:round;stroke-miterlimit:10;}
	.st9{fill:#E5FDFF;stroke:#000E4A;stroke-width:16;stroke-miterlimit:10;}
	.st10{fill:none;stroke:#000E4A;stroke-width:16;stroke-miterlimit:10;}
	.st11{fill:#000E4A;}
	.st12{fill:none;stroke:#000E4A;stroke-width:14;stroke-linecap:round;stroke-miterlimit:10;}
	.st13{fill:none;stroke:#6FA0FF;stroke-width:16;stroke-miterlimit:10;}
	.st14{fill:#6FA0FF;}
	.st15{fill:none;stroke:#6FA0FF;stroke-width:14;stroke-linecap:round;stroke-miterlimit:10;}
</style>
<line class="st0" x1="28.1" y1="327.7" x2="28.1" y2="287.3"/>
<line class="st0" x1="971.9" y1="327.7" x2="971.9" y2="285"/>
<path class="st0" d="M454.9,549.7L45.5,313.3c-25.8-14.9-22.5-40.8,7.2-58L444.6,29.1c29.7-17.2,74.7-19,100.5-4.2l409.5,236.4
	c25.8,14.9,22.5,40.8-7.2,58L555.4,545.6C525.7,562.7,480.7,564.6,454.9,549.7z"/>
<path class="st0" d="M969.2,316c-2.5-4.8-8.7-6.1-12.9-2.8c-2.7,2.1-5.7,4.2-9,6.1L555.4,545.6c-29.7,17.2-74.7,19-100.5,4.2
	L45.5,313.4c-0.6-0.3-1.1-0.7-1.7-1c-4.2-2.6-9.7-1.3-12.1,3c-7.6,13.8-3.3,28.5,13.8,38.3l409.5,236.4c25.8,14.9,70.7,13,100.5-4.2
	l391.9-226.3C968.9,347.2,976.5,330.1,969.2,316z"/>
<g>
	<path class="st1" d="M370.9,315.1l117.4-67.8l-133.4,23.9L336,260.4l41.4-77L260,251.1l-34.7-20l177.4-102.4l37.2,21.5l-48.1,88.7
		l154.2-27.5l37,21.3L405.5,335.2L370.9,315.1z"/>
	<path class="st1" d="M591.1,311.1l-113.7,65.6l-34.7-20l177.4-102.4l26.9,15.5l-23.4,120.9l116.2-67.1l34.7,20L597.3,445.9
		l-28.2-16.3L591.1,311.1z"/>
</g>
<line class="st2" x1="257.1" y1="347" x2="396.6" y2="427.6"/>
</svg>
